<svg xmlns="http://www.w3.org/2000/svg" xmlns:xlink="http://www.w3.org/1999/xlink" width="1560" height="1040" version="1.1" viewBox="0 0 780 520"><defs><linearGradient id="linearGradient-1" x1="-19.979%" x2="119.867%" y1="16.373%" y2="80.584%"><stop offset="0%" stop-color="#1F2227"/><stop offset="37.516%" stop-color="#26292E"/><stop offset="87.336%" stop-color="#1B1D21"/><stop offset="100%" stop-color="#000" stop-opacity=".5"/></linearGradient><rect id="path-2" width="780" height="521.372" x="0" y="0" rx="33.429"/><filter id="filter-4" width="131.8%" height="147.6%" x="-15.1%" y="-18.8%" filterUnits="objectBoundingBox"><feMorphology in="SourceAlpha" operator="dilate" radius="1.5" result="shadowSpreadOuter1"/><feOffset dx="6" dy="26" in="shadowSpreadOuter1" result="shadowOffsetOuter1"/><feGaussianBlur in="shadowOffsetOuter1" result="shadowBlurOuter1" stdDeviation="35.5"/><feColorMatrix in="shadowBlurOuter1" type="matrix" values="0 0 0 0 0.0511786727 0 0 0 0 0.054624505 0 0 0 0 0.10266644 0 0 0 0.231725306 0"/></filter><linearGradient id="linearGradient-5" x1="29.703%" x2="54.218%" y1="28.494%" y2="72.547%"><stop offset="0%" stop-color="#25282D" stop-opacity="0"/><stop offset="100%" stop-color="#686F78"/></linearGradient><linearGradient id="linearGradient-6" x1="50%" x2="37.409%" y1="4.697%" y2="81.155%"><stop offset="0%" stop-color="#25282D" stop-opacity="0"/><stop offset="100%" stop-color="#686F78"/></linearGradient><path id="path-7" d="M108.363134,688.310991 C191.889375,681.403743 243.010631,637.627444 261.7269,556.982093 C275.353231,498.268456 321.284923,462.32676 393.472209,434.700823 C420.515264,424.351498 452.494566,415.628737 479.074384,404.982215 C536.997349,381.781225 550.822067,175.5129 501.772616,150.927415 C476.894131,138.457354 340.329214,179.014048 92.0778667,272.597496 L108.363134,688.310991 Z"/><filter id="filter-8" width="139.1%" height="131.9%" x="-23%" y="-9.6%" filterUnits="objectBoundingBox"><feOffset dx="-15" dy="34" in="SourceAlpha" result="shadowOffsetOuter1"/><feGaussianBlur in="shadowOffsetOuter1" result="shadowBlurOuter1" stdDeviation="23"/><feColorMatrix in="shadowBlurOuter1" type="matrix" values="0 0 0 0 0 0 0 0 0 0 0 0 0 0 0 0 0 0 0.5 0"/></filter><linearGradient id="linearGradient-9" x1="50%" x2="38.688%" y1="4.697%" y2="81.155%"><stop offset="0%" stop-color="#25282D" stop-opacity="0"/><stop offset="100%" stop-color="#686F78"/></linearGradient><path id="path-10" d="M280.44246,558.520968 C349.977285,559.58502 395.706972,520.950973 417.63152,442.618827 C434.274621,383.156269 464.906129,318.331937 504.97079,272.304994 C544.074036,227.38254 499.385624,118.709004 415.768888,85.1965495 C347.01769,57.6420013 347.972627,50.3751361 418.633698,63.3959537 L132.070191,430.40647 L280.44246,558.520968 Z"/><filter id="filter-11" width="133.6%" height="126.3%" x="-17.3%" y="-6.6%" filterUnits="objectBoundingBox"><feOffset dx="-2" dy="34" in="SourceAlpha" result="shadowOffsetOuter1"/><feGaussianBlur in="shadowOffsetOuter1" result="shadowBlurOuter1" stdDeviation="16"/><feColorMatrix in="shadowBlurOuter1" type="matrix" values="0 0 0 0 0 0 0 0 0 0 0 0 0 0 0 0 0 0 0.347929414 0"/></filter><linearGradient id="linearGradient-12" x1="29.609%" x2="54.238%" y1="32.176%" y2="68.687%"><stop offset="0%" stop-color="#25282D" stop-opacity="0"/><stop offset="100%" stop-color="#686F78"/></linearGradient><linearGradient id="linearGradient-13" x1="50%" x2="31.032%" y1="23.206%" y2="68.426%"><stop offset="0%" stop-color="#25282D" stop-opacity="0"/><stop offset="100%" stop-color="#686F78"/></linearGradient><path id="path-14" d="M182.585217,678.342839 C266.111459,671.435591 317.232714,627.659292 335.948983,547.013941 C364.023387,426.045915 598.321044,372.614279 705.164354,399.613669 C776.393228,417.613262 714.330146,365.065702 518.975109,241.970987 L166.29995,262.629344 L182.585217,678.342839 Z"/><filter id="filter-15" width="130.3%" height="139.4%" x="-17.8%" y="-11.9%" filterUnits="objectBoundingBox"><feOffset dx="-15" dy="34" in="SourceAlpha" result="shadowOffsetOuter1"/><feGaussianBlur in="shadowOffsetOuter1" result="shadowBlurOuter1" stdDeviation="23"/><feColorMatrix in="shadowBlurOuter1" type="matrix" values="0 0 0 0 0 0 0 0 0 0 0 0 0 0 0 0 0 0 0.5 0"/></filter><linearGradient id="linearGradient-16" x1="50%" x2="31.032%" y1="12.359%" y2="75.885%"><stop offset="0%" stop-color="#25282D" stop-opacity="0"/><stop offset="100%" stop-color="#686F78"/></linearGradient><path id="path-17" d="M336.722315,612.216008 C395.189744,605.211874 436.117379,562.119028 459.505219,482.937471 C494.586979,364.165135 579.897859,227.005506 686.876671,254.035832 C758.195879,272.056049 692.737731,227.126125 490.502227,119.246061 L173.943889,470.725114 L336.722315,612.216008 Z"/><filter id="filter-18" width="124%" height="126.8%" x="-12.4%" y="-6.7%" filterUnits="objectBoundingBox"><feOffset dx="-2" dy="34" in="SourceAlpha" result="shadowOffsetOuter1"/><feGaussianBlur in="shadowOffsetOuter1" result="shadowBlurOuter1" stdDeviation="16"/><feColorMatrix in="shadowBlurOuter1" type="matrix" values="0 0 0 0 0 0 0 0 0 0 0 0 0 0 0 0 0 0 0.5 0"/></filter></defs><g id="Elastos" fill="none" fill-rule="evenodd" stroke="none" stroke-width="1"><g id="Elastos-Wallet.-Main"><g id="Structure"><g id="BG-3"><g id="BG-2"><g id="BG"><g><mask id="mask-3" fill="#fff"><use xlink:href="#path-2"/></mask><g id="Field" fill-rule="nonzero"><use fill="#000" fill-opacity="1" filter="url(#filter-4)" xlink:href="#path-2"/><use fill="#32353A" xlink:href="#path-2"/><use fill="url(#linearGradient-1)" xlink:href="#path-2"/></g><g id="Symbol-new" mask="url(#mask-3)" opacity=".1"><g transform="translate(-105.857143, -535.885714)"><g id="Group-7" transform="translate(0.000000, 221.561033)"><path id="Path-4" fill="url(#linearGradient-5)" d="M85.8,799.368534 C155.628571,780.017105 209.857143,722.721892 248.485714,627.482895 C306.428571,484.6244 330.942857,492.908891 443.485714,466.67282 C556.028571,440.436748 611.185714,255.109605 480.257143,243.387105 C392.971429,235.572105 232.885714,255.853891 0,304.232462 L85.8,799.368534 Z"/><g id="Path-5" transform="translate(311.886823, 418.519505) rotate(11.000000) translate(-311.886823, -418.519505)"><use fill="#000" fill-opacity="1" filter="url(#filter-8)" xlink:href="#path-7"/><use fill="url(#linearGradient-6)" fill-rule="evenodd" xlink:href="#path-7"/></g><g id="Path-5-Copy" transform="translate(325.679235, 307.835327) rotate(52.000000) translate(-325.679235, -307.835327)"><use fill="#000" fill-opacity="1" filter="url(#filter-11)" xlink:href="#path-10"/><use fill="url(#linearGradient-9)" fill-rule="evenodd" xlink:href="#path-10"/></g></g><g id="Group-7-Copy" transform="translate(617.314286, 444.059464) scale(-1, 1) translate(-617.314286, -444.059464) translate(174.385714, 0.000000)"><path id="Path-4" fill="url(#linearGradient-12)" d="M225.302639,777.005511 C322.297451,792.001879 386.798884,749.159398 418.806937,648.478069 C466.819017,497.456076 420.558914,492.844773 567.772432,458.624737 C714.98595,424.4047 892.991527,161.708331 721.691427,146.260218 C607.49136,135.961475 398.073772,162.351415 93.4386621,225.430036 L225.302639,777.005511 Z" transform="translate(442.651481, 462.006857) rotate(22.000000) translate(-442.651481, -462.006857)"/><g id="Path-5" transform="translate(450.005948, 460.156913) rotate(11.000000) translate(-450.005948, -460.156913)"><use fill="#000" fill-opacity="1" filter="url(#filter-15)" xlink:href="#path-14"/><use fill="url(#linearGradient-13)" fill-rule="evenodd" xlink:href="#path-14"/></g><g id="Path-5-Copy" transform="translate(444.355652, 365.731034) rotate(52.000000) translate(-444.355652, -365.731034)"><use fill="#000" fill-opacity="1" filter="url(#filter-18)" xlink:href="#path-17"/><use fill="url(#linearGradient-16)" fill-rule="evenodd" xlink:href="#path-17"/></g></g></g></g></g></g></g></g></g></g></g></svg>