<?xml version="1.0" standalone="no"?>
<!DOCTYPE svg PUBLIC "-//W3C//DTD SVG 20010904//EN"
 "http://www.w3.org/TR/2001/REC-SVG-20010904/DTD/svg10.dtd">
<svg version="1.0" xmlns="http://www.w3.org/2000/svg"
 width="512.000000pt" height="512.000000pt" viewBox="0 0 512.000000 512.000000"
 preserveAspectRatio="xMidYMid meet">
<metadata>
Created by potrace 1.14, written by Peter Selinger 2001-2017
</metadata>
<g transform="translate(0.000000,512.000000) scale(0.100000,-0.100000)"
fill="#000000" stroke="none">
<path d="M2360 4909 c-461 -40 -909 -219 -1275 -509 -103 -81 -284 -262 -365
-365 -367 -463 -555 -1061 -511 -1628 26 -339 93 -592 235 -882 122 -249 257
-437 450 -631 194 -194 384 -329 631 -450 574 -280 1208 -318 1816 -109 222
77 498 230 694 385 103 81 284 262 365 365 367 463 555 1061 511 1628 -26 339
-93 592 -235 882 -122 249 -257 437 -450 631 -194 194 -384 329 -631 450 -393
191 -809 270 -1235 233z m343 -96 c19 -17 20 -17 14 0 -4 11 -1 17 8 17 8 0
15 -7 15 -16 0 -13 3 -14 15 -4 11 9 37 10 96 5 52 -5 77 -10 68 -16 -9 -5 8
-9 46 -9 65 0 275 -47 275 -62 0 -5 4 -7 9 -4 8 6 109 -25 134 -41 6 -4 19 -8
26 -10 25 -3 291 -136 291 -145 0 -4 6 -8 13 -8 16 0 183 -109 222 -145 28
-26 28 -27 3 -12 -23 14 -28 14 -38 2 -7 -8 -9 -15 -4 -15 4 0 -3 -12 -17 -27
l-24 -28 28 24 c15 14 27 21 27 17 0 -5 6 -4 13 2 7 6 24 8 38 5 50 -13 250
-199 367 -341 l35 -43 -24 -27 -24 -27 27 23 26 24 55 -79 c80 -113 149 -231
142 -243 -3 -5 -1 -10 4 -10 19 0 71 -117 72 -162 2 -34 3 -37 6 -13 5 29 6
27 27 -26 46 -111 88 -251 83 -274 -2 -14 0 -22 4 -19 26 15 89 -408 68 -449
-9 -15 -8 -18 2 -12 9 6 11 -30 6 -176 -9 -267 -38 -429 -118 -667 -34 -100
-150 -353 -191 -417 -7 -11 -38 -58 -68 -105 -155 -241 -385 -471 -645 -644
-133 -89 -409 -228 -472 -239 -10 -2 -27 -8 -38 -14 -37 -20 -248 -75 -294
-77 -25 0 -48 -4 -51 -8 -3 -4 -39 -12 -80 -18 l-74 -10 -70 67 -71 68 63 -66
64 -66 -39 -6 c-123 -21 -479 0 -663 39 -180 37 -380 107 -380 132 0 15 -2 15
-10 2 -7 -12 -33 -2 -152 57 -161 81 -387 225 -390 250 0 4 -13 13 -27 19 -34
15 -225 198 -311 299 -84 99 -171 225 -164 236 3 5 0 9 -5 9 -13 0 -49 56
-108 165 -35 66 -42 88 -38 120 4 34 3 36 -4 10 -8 -30 -8 -30 -34 29 -15 32
-27 61 -27 63 0 3 12 -2 27 -12 25 -15 25 -13 -4 12 -17 15 -38 45 -47 65
l-15 38 27 1 c27 1 27 1 -3 8 -17 3 -31 14 -33 24 -3 12 1 16 15 12 12 -4 11
-2 -3 6 -55 29 -119 395 -119 679 0 178 31 464 53 480 4 3 8 21 9 40 1 19 23
100 49 180 37 111 50 139 54 120 5 -20 8 -15 12 23 7 60 114 278 139 284 10 3
15 11 13 18 -9 22 170 280 187 269 5 -3 9 2 9 10 0 9 37 57 82 106 58 66 83
88 89 78 7 -10 9 -8 9 5 0 23 88 106 113 107 10 0 16 4 12 10 -12 20 233 194
259 184 11 -4 15 -2 11 7 -3 9 26 31 87 66 76 43 95 50 116 42 20 -8 23 -7 18
6 -7 20 93 68 249 121 84 28 109 33 121 23 11 -9 14 -8 14 4 0 10 21 20 68 31
103 25 162 34 162 25 0 -4 14 -1 31 8 32 16 146 21 209 9 28 -5 30 -4 13 4
-13 5 -23 12 -23 15 0 3 53 5 117 5 97 0 120 -3 136 -17z"/>
<path d="M3755 4198 l-90 -93 93 90 c85 83 97 95 89 95 -1 0 -43 -42 -92 -92z"/>
<path d="M4229 3833 c-13 -16 -12 -17 4 -4 16 13 21 21 13 21 -2 0 -10 -8 -17
-17z"/>
<path d="M4119 3733 l-24 -28 28 24 c25 23 32 31 24 31 -2 0 -14 -12 -28 -27z"/>
<path d="M3292 3739 c2 -6 8 -10 13 -10 5 0 11 4 13 10 2 6 -4 11 -13 11 -9 0
-15 -5 -13 -11z"/>
<path d="M3368 3733 c6 -2 18 -2 25 0 6 3 1 5 -13 5 -14 0 -19 -2 -12 -5z"/>
<path d="M4065 3700 c-8 -13 4 -32 16 -25 12 8 12 35 0 35 -6 0 -13 -4 -16
-10z"/>
<path d="M1775 3339 c-178 -33 -333 -117 -455 -245 -146 -153 -210 -319 -210
-540 0 -78 -3 -102 -17 -118 -18 -21 -18 -21 3 -3 l21 18 22 -98 c27 -120 39
-157 40 -128 1 13 14 -3 35 -43 19 -35 40 -69 46 -77 10 -12 10 -19 -1 -32
-12 -16 -12 -17 2 -5 13 10 19 10 28 -2 9 -11 9 -15 -1 -19 -7 -3 -3 -6 10 -6
12 -1 22 -5 22 -10 0 -5 34 -39 76 -75 42 -36 88 -82 102 -103 34 -52 47 -64
28 -26 -22 43 -21 45 14 25 22 -12 30 -25 31 -47 1 -24 3 -25 6 -8 3 15 12 23
25 23 20 0 20 -1 3 -27 l-18 -28 21 19 c15 13 29 16 49 11 28 -7 28 -7 6 -18
-18 -10 -8 -12 60 -13 53 0 82 -4 85 -12 6 -18 235 -15 287 3 52 19 63 19 68
-2 4 -14 5 -12 6 5 1 16 7 22 25 22 14 0 28 5 31 10 4 6 10 8 15 5 4 -2 18 3
31 13 13 9 46 28 72 42 62 32 173 123 181 148 10 30 -9 67 -76 153 l-61 80
-29 -36 c-44 -53 -150 -124 -236 -158 -71 -29 -86 -31 -202 -32 -80 0 -139 5
-165 14 -81 27 -155 64 -155 77 0 7 -6 11 -12 9 -7 -2 -22 2 -33 11 -17 13
-18 16 -5 25 12 8 10 9 -6 4 -17 -4 -32 6 -73 51 l-51 56 22 31 22 32 -27 -24
-26 -24 -21 47 c-11 26 -23 65 -26 87 -6 34 -4 39 12 40 16 0 16 2 -3 9 -27
11 -30 30 -5 30 16 1 16 1 0 11 -32 18 -12 169 35 272 27 59 113 177 129 177
6 0 18 10 28 23 28 34 160 98 244 117 110 24 336 0 377 -41 10 -10 19 -14 21
-9 2 5 22 -2 46 -16 38 -22 43 -30 37 -51 -4 -16 -2 -22 5 -18 5 3 10 13 10
21 0 12 5 11 26 -5 34 -27 69 -27 88 0 l15 21 33 -23 33 -22 -27 29 -27 29 25
28 c33 39 28 91 -12 125 -70 58 -180 122 -257 150 -132 48 -297 64 -422 41z"/>
<path d="M3225 3340 c-173 -37 -322 -147 -387 -285 -67 -145 -50 -323 42 -423
37 -41 26 -41 -25 0 l-40 32 45 -49 c90 -99 101 -110 95 -94 -4 10 -2 19 2 22
10 6 125 -48 118 -55 -5 -5 158 -25 273 -34 75 -6 82 -8 83 -28 0 -20 1 -20
12 3 11 23 14 24 97 18 159 -10 229 -52 244 -148 19 -117 -67 -221 -221 -269
-70 -21 -213 -38 -213 -24 0 5 -35 9 -78 9 -72 0 -86 3 -164 42 -55 28 -109
65 -155 107 l-70 65 -77 -72 -77 -72 56 -63 c100 -110 233 -198 359 -238 51
-16 54 -19 44 -38 -10 -20 -10 -20 8 -5 15 13 35 15 94 12 66 -4 78 -7 96 -30
l22 -25 -5 26 c-5 25 -4 26 46 26 68 0 191 26 267 56 33 13 76 25 95 25 19 1
26 3 17 6 -18 4 -25 23 -10 23 22 0 106 79 141 131 54 81 73 144 73 244 0 127
-37 237 -107 314 -19 21 -32 41 -28 45 3 3 -1 6 -10 6 -9 0 -31 9 -50 20 -44
26 -135 57 -192 66 l-47 6 34 37 33 36 -36 -33 -35 -32 -195 9 c-204 10 -262
22 -306 63 -22 21 -24 28 -23 96 1 38 23 87 44 99 8 4 14 12 13 18 -2 18 84
75 136 89 51 15 247 20 247 7 0 -3 16 -7 35 -8 43 -2 129 -40 212 -95 42 -26
69 -38 80 -34 10 4 -9 -21 -42 -56 l-60 -62 55 49 c103 92 190 175 190 181 0
4 -7 1 -15 -6 -8 -7 -15 -11 -16 -9 0 2 -2 20 -5 38 -5 42 -29 68 -110 127
-77 55 -154 89 -258 115 -91 22 -289 33 -351 19z m715 -315 c-7 -9 -15 -13
-17 -11 -7 7 7 26 19 26 6 0 6 -6 -2 -15z m-989 -468 c-1 -12 -15 -9 -19 4 -3
6 1 10 8 8 6 -3 11 -8 11 -12z"/>
<path d="M3994 3085 c-9 -22 -1 -27 24 -18 22 8 22 8 2 21 -17 10 -21 10 -26
-3z"/>
<path d="M4649 3033 c-13 -16 -12 -17 4 -4 16 13 21 21 13 21 -2 0 -10 -8 -17
-17z"/>
<path d="M4600 2994 c0 -9 5 -14 12 -12 18 6 21 28 4 28 -9 0 -16 -7 -16 -16z"/>
<path d="M4544 2938 l-19 -23 23 19 c21 18 27 26 19 26 -2 0 -12 -10 -23 -22z"/>
<path d="M2550 2886 c0 -2 8 -10 18 -17 15 -13 16 -12 3 4 -13 16 -21 21 -21
13z"/>
<path d="M4339 2763 c-13 -16 -12 -17 4 -4 16 13 21 21 13 21 -2 0 -10 -8 -17
-17z"/>
<path d="M4150 2621 c0 -6 -12 -11 -27 -12 -25 -1 -25 -2 7 -9 40 -10 58 1 35
20 -10 8 -15 9 -15 1z"/>
<path d="M4715 2520 c-4 -6 -3 -16 3 -22 6 -6 12 -6 17 2 4 6 3 16 -3 22 -6 6
-12 6 -17 -2z"/>
<path d="M1610 2504 c0 -9 5 -14 12 -12 18 6 21 28 4 28 -9 0 -16 -7 -16 -16z"/>
<path d="M2115 2375 c48 -18 58 -18 53 -4 -2 6 -24 13 -48 15 l-45 3 40 -14z"/>
<path d="M1009 2343 c-13 -16 -12 -17 4 -4 9 7 17 15 17 17 0 8 -8 3 -21 -13z"/>
<path d="M2029 2243 c-13 -16 -12 -17 4 -4 9 7 17 15 17 17 0 8 -8 3 -21 -13z"/>
<path d="M1899 2103 l-24 -28 28 24 c25 23 32 31 24 31 -2 0 -14 -12 -28 -27z"/>
<path d="M774 2078 l-19 -23 23 19 c21 18 27 26 19 26 -2 0 -12 -10 -23 -22z"/>
<path d="M1207 2026 c-4 -10 -1 -19 9 -23 21 -8 26 1 11 22 -13 16 -14 16 -20
1z"/>
<path d="M699 1993 c-13 -16 -12 -17 4 -4 9 7 17 15 17 17 0 8 -8 3 -21 -13z"/>
<path d="M619 1903 c-13 -16 -12 -17 4 -4 9 7 17 15 17 17 0 8 -8 3 -21 -13z"/>
<path d="M440 1850 c8 -5 20 -10 25 -10 6 0 3 5 -5 10 -8 5 -19 10 -25 10 -5
0 -3 -5 5 -10z"/>
<path d="M500 1820 c0 -7 34 -20 53 -20 4 0 7 6 7 14 0 10 -10 14 -30 14 -16
-1 -30 -4 -30 -8z"/>
<path d="M4566 1801 c-3 -5 0 -14 8 -20 10 -9 15 -8 19 3 9 22 -15 37 -27 17z"/>
<path d="M4130 1765 c0 -8 7 -15 15 -15 8 0 15 7 15 15 0 8 -7 15 -15 15 -8 0
-15 -7 -15 -15z"/>
<path d="M1547 1750 c-3 -12 1 -17 16 -16 27 1 33 22 8 29 -13 3 -21 -1 -24
-13z"/>
<path d="M4059 1693 l-24 -28 28 24 c25 23 32 31 24 31 -2 0 -14 -12 -28 -27z"/>
<path d="M510 1681 c0 -6 4 -13 10 -16 6 -3 7 1 4 9 -7 18 -14 21 -14 7z"/>
<path d="M720 1615 c13 -14 26 -25 28 -25 3 0 -5 11 -18 25 -13 14 -26 25 -28
25 -3 0 5 -11 18 -25z"/>
<path d="M3959 1603 c-13 -16 -12 -17 4 -4 16 13 21 21 13 21 -2 0 -10 -8 -17
-17z"/>
<path d="M4350 1565 c19 -19 36 -35 39 -35 3 0 -10 16 -29 35 -19 19 -36 35
-39 35 -3 0 10 -16 29 -35z"/>
<path d="M3849 1503 c-13 -16 -12 -17 4 -4 16 13 21 21 13 21 -2 0 -10 -8 -17
-17z"/>
<path d="M835 1490 c10 -11 20 -20 23 -20 3 0 -3 9 -13 20 -10 11 -20 20 -23
20 -3 0 3 -9 13 -20z"/>
<path d="M917 1398 c7 -8 10 -18 6 -21 -3 -4 -1 -7 5 -7 7 0 15 0 20 0 4 0 7
6 7 13 0 6 -4 12 -10 12 -5 0 -17 4 -25 10 -12 7 -13 6 -3 -7z"/>
<path d="M2905 1351 c-7 -12 12 -24 25 -16 11 7 4 25 -10 25 -5 0 -11 -4 -15
-9z"/>
<path d="M3930 1310 c-12 -7 -12 -12 -3 -21 10 -10 14 -9 19 5 8 22 2 27 -16
16z"/>
<path d="M3552 1246 c-22 -11 -25 -27 -6 -33 5 -1 14 8 21 22 6 14 10 24 10
24 -1 -1 -12 -6 -25 -13z"/>
<path d="M2235 1163 c-16 -24 -16 -26 -2 -14 9 7 17 10 17 5 0 -4 5 -3 12 4 8
8 9 15 1 23 -7 7 -16 2 -28 -18z"/>
<path d="M2189 1113 c-13 -16 -12 -17 4 -4 16 13 21 21 13 21 -2 0 -10 -8 -17
-17z"/>
<path d="M1944 888 l-19 -23 23 19 c21 18 27 26 19 26 -2 0 -12 -10 -23 -22z"/>
<path d="M1840 795 c-24 -25 -42 -45 -39 -45 3 0 25 20 49 45 24 25 42 45 39
45 -3 0 -25 -20 -49 -45z"/>
<path d="M2893 818 c2 -7 10 -13 17 -13 7 0 15 6 18 13 2 7 -5 12 -18 12 -13
0 -20 -5 -17 -12z"/>
<path d="M1760 725 c-8 -9 -8 -15 -2 -15 12 0 26 19 19 26 -2 2 -10 -2 -17
-11z"/>
<path d="M1697 673 c-15 -8 -25 -18 -22 -24 10 -15 22 -10 39 16 9 14 15 25
14 24 -2 -1 -15 -8 -31 -16z"/>
<path d="M2406 683 c-11 -11 -6 -23 9 -23 8 0 15 4 15 9 0 13 -16 22 -24 14z"/>
<path d="M2931 594 c0 -11 3 -14 6 -6 3 7 2 16 -1 19 -3 4 -6 -2 -5 -13z"/>
<path d="M3477 565 c6 -17 25 -15 31 3 2 7 -5 12 -17 12 -14 0 -19 -5 -14 -15z"/>
<path d="M3404 488 l-19 -23 23 19 c12 11 22 21 22 23 0 8 -8 2 -26 -19z"/>
</g>
</svg>
