<?xml version="1.0" standalone="no"?>
<!DOCTYPE svg PUBLIC "-//W3C//DTD SVG 20010904//EN"
 "http://www.w3.org/TR/2001/REC-SVG-20010904/DTD/svg10.dtd">
<svg version="1.0" xmlns="http://www.w3.org/2000/svg"
 width="512.000000pt" height="512.000000pt" viewBox="0 0 512.000000 512.000000"
 preserveAspectRatio="xMidYMid meet">
<metadata>
Created by potrace 1.14, written by Peter Selinger 2001-2017
</metadata>
<g transform="translate(0.000000,512.000000) scale(0.100000,-0.100000)"
fill="#000000" stroke="none">
<path d="M2353 4910 c-543 -53 -1042 -281 -1431 -654 -313 -300 -555 -724
-655 -1151 -47 -197 -61 -323 -61 -545 0 -382 72 -696 239 -1036 347 -709 998
-1180 1795 -1301 158 -23 482 -23 640 0 795 121 1449 593 1794 1297 167 340
239 654 239 1040 0 388 -70 694 -238 1036 -345 705 -1002 1183 -1785 1299
-129 19 -413 27 -537 15z m433 -81 c413 -40 811 -196 1153 -452 107 -81 296
-259 362 -342 24 -31 54 -69 67 -83 18 -22 90 -128 160 -237 23 -36 152 -299
162 -330 5 -16 23 -70 40 -120 68 -197 99 -379 107 -630 9 -280 -24 -530 -102
-768 -38 -120 -46 -138 -113 -281 -175 -372 -455 -695 -807 -931 -132 -88
-390 -214 -541 -264 -456 -149 -973 -149 -1428 1 -313 103 -619 288 -866 525
-304 291 -530 678 -635 1088 -54 209 -78 535 -56 765 66 695 447 1323 1031
1703 433 281 949 407 1466 356z"/>
<path d="M1760 3335 c-316 -65 -557 -288 -631 -585 -21 -85 -17 -287 9 -381
89 -329 374 -563 715 -586 227 -15 446 62 617 215 l54 49 -68 92 -69 92 -34
-40 c-47 -56 -168 -134 -250 -162 -98 -34 -279 -34 -373 -1 -245 88 -385 261
-404 501 -3 35 -3 68 0 73 3 5 7 30 9 56 3 60 36 145 84 218 101 157 290 253
496 254 50 0 78 -5 94 -17 14 -9 21 -11 17 -5 -9 16 0 15 65 -4 76 -23 139
-56 203 -109 l55 -44 63 75 c35 41 63 81 63 88 0 18 -74 78 -154 126 -159 94
-382 131 -561 95z"/>
<path d="M3194 3331 c-164 -45 -287 -139 -351 -269 -35 -69 -38 -85 -41 -171
-3 -79 0 -106 17 -152 24 -64 75 -128 129 -160 20 -13 40 -28 44 -33 4 -6 8
-8 8 -4 0 4 25 -2 55 -12 77 -26 186 -40 323 -40 146 0 232 -13 299 -46 62
-30 89 -64 103 -132 36 -166 -117 -292 -375 -309 -178 -11 -322 39 -450 159
l-72 67 -77 -72 -77 -72 51 -52 c190 -196 440 -282 705 -242 50 7 92 13 95 14
40 10 121 39 140 50 24 13 28 11 70 -28 l45 -42 -39 42 c-22 24 -38 44 -35 46
2 2 20 13 40 25 58 35 138 127 170 197 57 121 47 311 -21 418 -79 126 -232
179 -557 196 -195 10 -282 28 -290 62 -3 10 -9 17 -13 14 -5 -3 -18 7 -30 22
-18 23 -21 38 -18 88 7 102 82 185 202 220 49 15 206 21 206 8 0 -3 -8 -16
-17 -27 -14 -16 -12 -16 9 3 22 19 33 22 67 16 54 -9 174 -68 239 -116 29 -22
56 -39 61 -37 4 2 36 36 70 76 l63 74 -28 30 c-38 39 -148 112 -210 138 -143
62 -383 85 -510 51z"/>
<path d="M2070 3066 c0 -2 8 -10 18 -17 15 -13 16 -12 3 4 -13 16 -21 21 -21
13z"/>
<path d="M3319 2993 l-24 -28 28 24 c25 23 32 31 24 31 -2 0 -14 -12 -28 -27z"/>
<path d="M2140 3006 c0 -2 8 -10 18 -17 15 -13 16 -12 3 4 -13 16 -21 21 -21
13z"/>
<path d="M3159 2843 l-34 -38 38 34 c20 19 37 36 37 38 0 8 -8 0 -41 -34z"/>
<path d="M3948 1923 c6 -2 18 -2 25 0 6 3 1 5 -13 5 -14 0 -19 -2 -12 -5z"/>
<path d="M3539 1763 l-24 -28 28 24 c25 23 32 31 24 31 -2 0 -14 -12 -28 -27z"/>
<path d="M3429 1663 c-13 -16 -12 -17 4 -4 16 13 21 21 13 21 -2 0 -10 -8 -17
-17z"/>
</g>
</svg>
