<?xml version="1.0" standalone="no"?>
<!DOCTYPE svg PUBLIC "-//W3C//DTD SVG 20010904//EN"
 "http://www.w3.org/TR/2001/REC-SVG-20010904/DTD/svg10.dtd">
<svg version="1.0" xmlns="http://www.w3.org/2000/svg"
 width="512.000000pt" height="512.000000pt" viewBox="0 0 512.000000 512.000000"
 preserveAspectRatio="xMidYMid meet">
<metadata>
Created by potrace 1.14, written by Peter Selinger 2001-2017
</metadata>
<g transform="translate(0.000000,512.000000) scale(0.100000,-0.100000)"
fill="#000000" stroke="none">
<path d="M2285 4735 c-305 -38 -614 -147 -885 -315 -264 -164 -544 -445 -706
-710 -216 -356 -324 -737 -324 -1150 0 -333 70 -648 209 -935 114 -238 227
-399 411 -589 357 -369 807 -593 1308 -651 410 -48 835 20 1189 190 243 116
407 230 597 415 433 420 666 969 666 1570 0 413 -108 794 -324 1150 -162 265
-442 546 -706 710 -202 125 -460 231 -678 280 -220 48 -526 63 -757 35z m-135
-1445 c93 -27 208 -86 282 -146 l57 -47 -19 -26 c-10 -14 -40 -50 -67 -79
l-48 -53 -45 37 c-336 271 -839 107 -925 -301 -39 -185 11 -352 145 -485 222
-221 574 -224 806 -8 l62 58 62 -86 62 -85 -23 -26 c-13 -14 -51 -45 -84 -70
-411 -310 -1002 -153 -1191 316 -63 156 -71 363 -20 516 84 249 303 437 581
499 93 21 263 14 365 -14z m1392 1 c111 -29 219 -86 316 -168 l33 -28 -65 -77
-66 -77 -64 44 c-204 143 -437 166 -581 57 -112 -85 -129 -232 -33 -290 55
-34 106 -43 298 -52 248 -12 360 -41 461 -121 42 -33 86 -110 95 -167 5 -29
12 -42 23 -42 10 0 12 -3 5 -8 -7 -4 -13 -46 -16 -97 -3 -75 -9 -102 -36 -158
-79 -169 -278 -277 -542 -294 -167 -10 -339 39 -477 137 -75 53 -167 143 -162
157 2 5 34 38 71 72 l68 63 70 -65 c77 -71 182 -128 268 -146 168 -35 404 23
482 117 75 90 61 229 -29 289 -54 37 -95 44 -302 53 -280 13 -391 44 -483 136
-67 66 -89 134 -84 254 4 87 7 101 42 168 67 126 199 223 350 258 80 18 257
11 358 -15z m-792 -2685 c0 -3 -4 -8 -10 -11 -5 -3 -10 -1 -10 4 0 6 5 11 10
11 6 0 10 -2 10 -4z"/>
</g>
</svg>
