<?xml version="1.0" standalone="no"?>
<!DOCTYPE svg PUBLIC "-//W3C//DTD SVG 20010904//EN"
 "http://www.w3.org/TR/2001/REC-SVG-20010904/DTD/svg10.dtd">
<svg version="1.0" xmlns="http://www.w3.org/2000/svg"
 width="512.000000pt" height="512.000000pt" viewBox="0 0 512.000000 512.000000"
 preserveAspectRatio="xMidYMid meet">
<metadata>
Created by potrace 1.14, written by Peter Selinger 2001-2017
</metadata>
<g transform="translate(0.000000,512.000000) scale(0.100000,-0.100000)"
fill="#000000" stroke="none">
<path d="M2435 4834 c-342 -26 -595 -92 -873 -229 -247 -121 -436 -259 -637
-466 -182 -187 -294 -347 -411 -584 -159 -324 -227 -621 -227 -995 0 -200 8
-287 44 -470 65 -330 249 -712 471 -975 86 -102 242 -256 338 -335 250 -205
634 -386 950 -449 321 -63 669 -60 980 9 312 69 679 248 916 445 473 395 752
893 835 1495 7 47 12 173 12 280 0 373 -70 679 -228 998 -149 301 -337 539
-600 760 -318 267 -750 453 -1165 501 -100 12 -333 20 -405 15z m-377 -1494
c121 -20 250 -76 351 -154 96 -74 100 -55 -54 -234 -2 -2 -32 18 -67 43 -81
60 -138 89 -219 111 -84 22 -234 23 -318 0 -253 -66 -420 -283 -421 -546 0
-283 216 -514 514 -551 175 -21 342 34 475 157 39 37 73 65 75 63 64 -83 126
-170 126 -177 0 -18 -119 -121 -181 -157 -152 -89 -281 -120 -468 -112 -145 6
-224 26 -341 89 -187 100 -326 268 -390 473 -34 107 -39 304 -11 414 69 275
285 488 573 567 93 25 247 31 356 14z m1452 -1 c145 -23 290 -91 398 -186 l42
-38 -70 -82 -71 -82 -62 45 c-126 92 -231 127 -386 128 -85 0 -103 -3 -159
-28 -159 -73 -214 -240 -106 -325 47 -37 120 -51 319 -61 278 -13 401 -50 498
-146 45 -46 87 -129 87 -174 0 -13 7 -20 20 -20 23 0 26 -15 6 -27 -9 -6 -15
-36 -18 -98 -3 -75 -9 -102 -36 -158 -67 -144 -217 -247 -419 -289 -126 -26
-323 -21 -421 10 -85 28 -192 83 -260 136 -65 49 -145 133 -140 145 2 5 37 40
79 79 l76 71 58 -59 c120 -123 238 -173 405 -173 171 1 296 40 372 120 45 46
58 79 58 144 0 116 -71 184 -212 204 -23 3 -128 10 -233 15 -105 5 -214 16
-244 24 -183 50 -284 160 -298 324 -18 218 141 424 382 493 70 20 236 24 335
8z m1040 -634 c0 -8 -7 -15 -15 -15 -8 0 -15 7 -15 15 0 8 7 15 15 15 8 0 15
-7 15 -15z m13 -341 c-3 -8 -9 -14 -13 -14 -13 0 -22 19 -15 30 9 14 34 0 28
-16z m-1015 -106 c2 -8 -6 -18 -16 -20 -15 -4 -18 -1 -14 19 5 26 25 26 30 1z
m570 -431 c5 -23 -20 -22 -35 1 -9 16 -8 18 11 17 11 -1 22 -9 24 -18z m441 5
c7 -14 6 -18 -10 -19 -21 -2 -33 12 -24 27 9 15 23 12 34 -8z m-1753 -13 c8
-14 -18 -31 -30 -19 -9 9 0 30 14 30 5 0 12 -5 16 -11z m57 4 c-7 -2 -19 -2
-25 0 -7 3 -2 5 12 5 14 0 19 -2 13 -5z m-503 -273 c0 -12 -28 -25 -36 -17 -9
9 6 27 22 27 8 0 14 -5 14 -10z m860 -26 c0 -8 -7 -14 -15 -14 -15 0 -21 21
-9 33 10 9 24 -2 24 -19z m357 -66 c-2 -18 -4 -6 -4 27 0 33 2 48 4 33 2 -15
2 -42 0 -60z m-2202 24 c0 -18 -20 -15 -23 4 -3 10 1 15 10 12 7 -3 13 -10 13
-16z m1277 -24 c-10 -10 -15 -10 -22 2 -6 9 -5 17 3 22 18 11 33 -10 19 -24z
m1861 -3 c1 -5 -6 -11 -15 -13 -11 -2 -18 3 -18 13 0 17 30 18 33 0z m-483
-31 c0 -16 -16 -19 -25 -4 -8 13 4 32 16 25 5 -4 9 -13 9 -21z m-2653 -31 c-3
-10 -5 -4 -5 12 0 17 2 24 5 18 2 -7 2 -21 0 -30z m2217 18 c3 -5 -1 -14 -8
-20 -16 -13 -32 2 -21 19 8 12 22 13 29 1z m-1644 -36 c0 -8 -7 -15 -15 -15
-8 0 -15 7 -15 15 0 8 7 15 15 15 8 0 15 -7 15 -15z m-563 -42 c-3 -10 -5 -4
-5 12 0 17 2 24 5 18 2 -7 2 -21 0 -30z m10 -55 c-3 -8 -6 -5 -6 6 -1 11 2 17
5 13 3 -3 4 -12 1 -19z m901 -155 c-4 -22 -22 -20 -26 1 -2 10 3 16 13 16 10
0 15 -7 13 -17z m-460 -20 c-4 -22 -22 -20 -26 1 -2 10 3 16 13 16 10 0 15 -7
13 -17z m-848 -27 c0 -8 -4 -17 -9 -21 -12 -7 -24 12 -16 25 9 15 25 12 25 -4z
m3160 -71 c0 -8 -7 -15 -15 -15 -8 0 -15 7 -15 15 0 8 7 15 15 15 8 0 15 -7
15 -15z m-1000 -28 c0 -8 -3 -17 -7 -20 -9 -9 -34 13 -27 24 8 14 34 11 34 -4z
m-1677 -23 c-5 -15 -25 -19 -36 -7 -11 10 13 32 28 27 8 -3 11 -12 8 -20z
m2207 11 c0 -8 -6 -15 -14 -15 -17 0 -28 14 -19 24 12 12 33 6 33 -9z m-1016
-36 c-8 -14 -34 -11 -34 4 0 8 3 17 7 20 9 9 34 -13 27 -24z m-1197 -176 c-3
-10 -5 -4 -5 12 0 17 2 24 5 18 2 -7 2 -21 0 -30z m1659 -54 c8 -14 -18 -31
-30 -19 -9 9 0 30 14 30 5 0 12 -5 16 -11z m-1272 -50 c-8 -14 -34 -11 -34 4
0 8 3 17 7 20 9 9 34 -13 27 -24z m-360 2 c3 -5 -1 -14 -8 -20 -16 -13 -32 2
-21 19 8 12 22 13 29 1z m303 3 c-3 -3 -12 -4 -19 -1 -8 3 -5 6 6 6 11 1 17
-2 13 -5z m593 -118 c-7 -7 -14 -6 -22 2 -10 10 -10 15 2 22 17 11 34 -10 20
-24z m389 8 c13 5 12 3 -2 -8 -12 -9 -14 -16 -8 -21 6 -3 11 -10 11 -15 0 -10
-52 -2 -60 9 -3 4 -12 11 -20 14 -12 4 -12 6 2 6 9 1 20 10 23 21 6 18 8 19
22 4 9 -8 23 -13 32 -10z"/>
</g>
</svg>
