<?xml version="1.0" standalone="no"?>
<!DOCTYPE svg PUBLIC "-//W3C//DTD SVG 20010904//EN"
 "http://www.w3.org/TR/2001/REC-SVG-20010904/DTD/svg10.dtd">
<svg version="1.0" xmlns="http://www.w3.org/2000/svg"
 width="512.000000pt" height="512.000000pt" viewBox="0 0 512.000000 512.000000"
 preserveAspectRatio="xMidYMid meet">
<metadata>
Created by potrace 1.14, written by Peter Selinger 2001-2017
</metadata>
<g transform="translate(0.000000,512.000000) scale(0.100000,-0.100000)"
fill="#000000" stroke="none">
<path d="M2277 4825 c-254 -31 -472 -97 -712 -215 -399 -196 -712 -478 -945
-850 -124 -198 -242 -484 -289 -704 -67 -308 -67 -684 0 -992 84 -391 299
-788 589 -1088 106 -110 303 -276 327 -276 7 0 13 -4 13 -9 0 -16 178 -121
325 -192 313 -150 621 -219 975 -219 506 0 970 156 1379 463 173 129 462 431
453 473 -2 8 3 14 11 14 51 0 365 626 326 651 -8 4 -6 10 5 16 10 5 26 47 40
105 77 301 86 685 25 1002 -101 528 -427 1049 -859 1372 -267 200 -585 349
-884 413 -227 50 -545 64 -779 36z m2053 -1465 c0 -5 -4 -10 -10 -10 -5 0 -10
5 -10 10 0 6 5 10 10 10 6 0 10 -4 10 -10z m-2207 -39 c100 -26 239 -98 307
-160 l54 -48 -69 -82 -69 -81 -30 29 c-45 43 -139 97 -215 123 -89 31 -287 33
-371 4 -197 -68 -329 -199 -384 -384 -78 -265 44 -534 297 -657 51 -24 120
-49 155 -56 85 -16 230 -6 311 22 77 26 198 105 244 160 l35 40 67 -92 68 -93
-59 -52 c-204 -182 -486 -253 -751 -189 -94 23 -235 94 -310 155 -195 159
-309 422 -290 671 9 111 23 161 77 275 134 279 428 452 745 439 62 -2 144 -13
188 -24z m1455 -1 c98 -24 201 -73 281 -134 93 -72 92 -65 20 -148 -35 -40
-64 -75 -65 -77 -2 -2 -44 24 -94 58 -124 83 -199 106 -350 106 -103 0 -121
-3 -170 -26 -30 -14 -69 -38 -87 -53 -41 -35 -75 -105 -75 -160 -2 -116 102
-175 310 -176 187 0 358 -29 457 -76 118 -55 176 -139 197 -282 42 -290 -150
-505 -501 -557 -118 -18 -184 -18 -281 -1 -158 28 -311 110 -428 229 l-63 64
77 71 78 71 74 -69 c128 -120 254 -166 432 -157 175 9 299 62 365 155 26 39
30 52 29 110 -1 78 -19 119 -69 157 -59 45 -115 56 -335 65 -293 13 -412 48
-501 148 -61 69 -82 138 -77 252 3 81 8 105 36 163 62 134 210 245 372 282 84
19 255 12 368 -15z m762 -200 c0 -5 -4 -10 -10 -10 -5 0 -10 5 -10 10 0 6 5
10 10 10 6 0 10 -4 10 -10z m420 -90 c0 -5 -4 -10 -10 -10 -5 0 -10 5 -10 10
0 6 5 10 10 10 6 0 10 -4 10 -10z m-506 -351 c-3 -5 -10 -7 -15 -3 -5 3 -7 10
-3 15 3 5 10 7 15 3 5 -3 7 -10 3 -15z m86 -349 c0 -5 -4 -10 -10 -10 -5 0
-10 5 -10 10 0 6 5 10 10 10 6 0 10 -4 10 -10z m-30 -370 c0 -5 -4 -10 -10
-10 -5 0 -10 5 -10 10 0 6 5 10 10 10 6 0 10 -4 10 -10z m-1550 -40 c0 -5 -5
-10 -11 -10 -5 0 -7 5 -4 10 3 6 8 10 11 10 2 0 4 -4 4 -10z m1140 0 c0 -5 -4
-10 -10 -10 -5 0 -10 5 -10 10 0 6 5 10 10 10 6 0 10 -4 10 -10z m-1850 -320
c0 -5 -4 -10 -10 -10 -5 0 -10 5 -10 10 0 6 5 10 10 10 6 0 10 -4 10 -10z
m-466 -71 c-3 -5 -10 -7 -15 -3 -5 3 -7 10 -3 15 3 5 10 7 15 3 5 -3 7 -10 3
-15z m-254 7 c0 -3 -4 -8 -10 -11 -5 -3 -10 -1 -10 4 0 6 5 11 10 11 6 0 10
-2 10 -4z m2900 -16 c0 -5 -2 -10 -4 -10 -3 0 -8 5 -11 10 -3 6 -1 10 4 10 6
0 11 -4 11 -10z m-1450 -10 c0 -5 -4 -10 -10 -10 -5 0 -10 5 -10 10 0 6 5 10
10 10 6 0 10 -4 10 -10z m1240 -4 c0 -3 -4 -8 -10 -11 -5 -3 -10 -1 -10 4 0 6
5 11 10 11 6 0 10 -2 10 -4z m-925 -36 c3 -5 1 -10 -4 -10 -6 0 -11 5 -11 10
0 6 2 10 4 10 3 0 8 -4 11 -10z m495 -20 c0 -5 -2 -10 -4 -10 -3 0 -8 5 -11
10 -3 6 -1 10 4 10 6 0 11 -4 11 -10z m-1570 -210 c0 -5 -4 -10 -10 -10 -5 0
-10 5 -10 10 0 6 5 10 10 10 6 0 10 -4 10 -10z m820 -30 c0 -5 -5 -10 -11 -10
-5 0 -7 5 -4 10 3 6 8 10 11 10 2 0 4 -4 4 -10z m-1245 -10 c3 -5 1 -10 -4
-10 -6 0 -11 5 -11 10 0 6 2 10 4 10 3 0 8 -4 11 -10z m1645 -30 c0 -5 -4 -10
-10 -10 -5 0 -10 5 -10 10 0 6 5 10 10 10 6 0 10 -4 10 -10z m-1880 -10 c0 -5
-4 -10 -10 -10 -5 0 -10 5 -10 10 0 6 5 10 10 10 6 0 10 -4 10 -10z m2140 6
c0 -3 -4 -8 -10 -11 -5 -3 -10 -1 -10 4 0 6 5 11 10 11 6 0 10 -2 10 -4z
m-2480 -10 c0 -3 -4 -8 -10 -11 -5 -3 -10 -1 -10 4 0 6 5 11 10 11 6 0 10 -2
10 -4z m2930 -26 c0 -5 -5 -10 -11 -10 -5 0 -7 5 -4 10 3 6 8 10 11 10 2 0 4
-4 4 -10z m-1560 -20 c0 -5 -5 -10 -11 -10 -5 0 -7 5 -4 10 3 6 8 10 11 10 2
0 4 -4 4 -10z m-410 -306 c0 -8 -5 -12 -10 -9 -6 4 -8 11 -5 16 9 14 15 11 15
-7z m1210 -34 c0 -5 -2 -10 -4 -10 -3 0 -8 5 -11 10 -3 6 -1 10 4 10 6 0 11
-4 11 -10z m-380 -80 c0 -5 -4 -10 -10 -10 -5 0 -10 5 -10 10 0 6 5 10 10 10
6 0 10 -4 10 -10z m385 -220 c3 -5 1 -10 -4 -10 -6 0 -11 5 -11 10 0 6 2 10 4
10 3 0 8 -4 11 -10z m-360 -70 c3 -5 1 -10 -4 -10 -6 0 -11 5 -11 10 0 6 2 10
4 10 3 0 8 -4 11 -10z"/>
</g>
</svg>
