<?xml version="1.0" standalone="no"?>
<!DOCTYPE svg PUBLIC "-//W3C//DTD SVG 20010904//EN"
 "http://www.w3.org/TR/2001/REC-SVG-20010904/DTD/svg10.dtd">
<svg version="1.0" xmlns="http://www.w3.org/2000/svg"
 width="512.000000pt" height="512.000000pt" viewBox="0 0 512.000000 512.000000"
 preserveAspectRatio="xMidYMid meet">
<metadata>
Created by potrace 1.14, written by Peter Selinger 2001-2017
</metadata>
<g transform="translate(0.000000,512.000000) scale(0.100000,-0.100000)"
fill="#000000" stroke="none">
<path d="M2400 4744 c-447 -42 -810 -179 -1160 -438 -122 -90 -336 -304 -426
-426 -227 -307 -367 -642 -420 -1006 -24 -162 -24 -466 0 -628 69 -472 280
-891 621 -1231 340 -341 758 -552 1231 -621 162 -24 466 -24 628 0 473 69 891
280 1231 621 340 340 552 759 621 1231 24 162 24 466 0 628 -53 364 -193 699
-420 1006 -90 122 -304 336 -426 426 -306 226 -646 369 -1001 419 -113 16
-392 27 -479 19z m-310 -1438 c42 -8 110 -28 152 -45 76 -32 196 -109 232
-149 18 -21 18 -22 -48 -101 l-67 -80 -54 44 c-106 86 -232 129 -375 128 -160
-2 -290 -53 -395 -158 -105 -104 -155 -229 -155 -385 0 -140 43 -252 134 -348
97 -104 216 -165 355 -183 174 -22 349 39 477 166 24 25 48 45 52 45 6 0 112
-143 121 -163 6 -15 -71 -88 -147 -138 -145 -95 -297 -136 -479 -126 -284 14
-524 171 -647 422 -25 50 -52 122 -62 160 -22 92 -22 267 0 359 33 137 135
295 251 389 76 61 218 132 315 156 90 23 233 26 340 7z m1463 -15 c99 -26 217
-87 287 -150 l55 -49 -54 -63 c-30 -35 -60 -70 -67 -78 -11 -12 -25 -6 -89 38
-99 69 -174 98 -279 110 -142 16 -231 -7 -310 -79 -78 -72 -98 -179 -44 -237
47 -52 98 -65 283 -74 304 -15 414 -44 517 -137 40 -36 88 -120 88 -154 0 -10
10 -26 22 -37 19 -19 20 -21 4 -27 -14 -6 -17 -14 -12 -43 8 -53 -11 -156 -40
-213 -96 -189 -343 -300 -632 -285 -168 8 -301 60 -439 169 -34 27 -76 66 -93
88 l-30 38 76 70 76 71 66 -65 c116 -115 280 -174 437 -158 137 14 244 55 302
116 41 42 53 76 53 144 0 63 -16 101 -60 138 -52 43 -118 56 -335 66 -219 10
-284 22 -378 73 -262 139 -221 530 73 687 111 59 167 71 315 66 87 -3 156 -11
208 -25z m917 -591 c0 -5 -7 -10 -16 -10 -8 0 -12 5 -9 10 3 6 10 10 16 10 5
0 9 -4 9 -10z m10 -325 c0 -8 -4 -15 -9 -15 -13 0 -22 16 -14 24 11 11 23 6
23 -9z m-972 -106 c-2 -6 -8 -10 -13 -10 -5 0 -11 4 -13 10 -2 6 4 11 13 11 9
0 15 -5 13 -11z m544 -414 c0 -5 -5 -11 -11 -13 -6 -2 -11 4 -11 13 0 9 5 15
11 13 6 -2 11 -8 11 -13z m428 5 c0 -5 -7 -10 -15 -10 -8 0 -15 5 -15 10 0 6
7 10 15 10 8 0 15 -4 15 -10z m-1690 -21 c0 -5 -4 -9 -10 -9 -5 0 -10 7 -10
16 0 8 5 12 10 9 6 -3 10 -10 10 -16z m-428 -254 c0 -5 -5 -11 -11 -13 -6 -2
-11 4 -11 13 0 9 5 15 11 13 6 -2 11 -8 11 -13z m828 -20 c0 -8 -4 -15 -10
-15 -5 0 -10 7 -10 15 0 8 5 15 10 15 6 0 10 -7 10 -15z m-1770 -40 c0 -8 -4
-15 -10 -15 -5 0 -10 7 -10 15 0 8 5 15 10 15 6 0 10 -7 10 -15z m1230 -10 c0
-8 -4 -15 -10 -15 -5 0 -10 7 -10 15 0 8 5 15 10 15 6 0 10 -7 10 -15z m1781
-18 c-1 -12 -15 -9 -19 4 -3 6 1 10 8 8 6 -3 11 -8 11 -12z m-464 -33 c-9 -9
-28 6 -21 18 4 6 10 6 17 -1 6 -6 8 -13 4 -17z m-417 -12 c0 -13 -12 -22 -22
-16 -10 6 -1 24 13 24 5 0 9 -4 9 -8z m-1580 -32 c0 -5 -4 -10 -10 -10 -5 0
-10 5 -10 10 0 6 5 10 10 10 6 0 10 -4 10 -10z m338 -241 c-2 -6 -8 -10 -13
-10 -5 0 -11 4 -13 10 -2 6 4 11 13 11 9 0 15 -5 13 -11z m-440 -20 c-2 -6 -8
-10 -13 -10 -5 0 -11 4 -13 10 -2 6 4 11 13 11 9 0 15 -5 13 -11z m-820 -30
c-2 -6 -8 -10 -13 -10 -5 0 -11 4 -13 10 -2 6 4 11 13 11 9 0 15 -5 13 -11z
m3040 -60 c-2 -6 -8 -10 -13 -10 -5 0 -11 4 -13 10 -2 6 4 11 13 11 9 0 15 -5
13 -11z m-966 -34 c0 -5 -5 -11 -11 -13 -6 -2 -11 4 -11 13 0 9 5 15 11 13 6
-2 11 -8 11 -13z m508 -11 c0 -8 -4 -12 -10 -9 -5 3 -10 10 -10 16 0 5 5 9 10
9 6 0 10 -7 10 -16z m-2122 -5 c-2 -6 -8 -10 -13 -10 -5 0 -11 4 -13 10 -2 6
4 11 13 11 9 0 15 -5 13 -11z m1152 -20 c0 -5 -7 -9 -15 -9 -15 0 -20 12 -9
23 8 8 24 -1 24 -14z m440 -234 c0 -8 -4 -15 -9 -15 -13 0 -22 16 -14 24 11
11 23 6 23 -9z m-1220 -36 c0 -5 -7 -9 -15 -9 -15 0 -20 12 -9 23 8 8 24 -1
24 -14z m-350 -14 c0 -8 -4 -15 -10 -15 -5 0 -10 7 -10 15 0 8 5 15 10 15 6 0
10 -7 10 -15z m868 -86 c-2 -6 -8 -10 -13 -10 -5 0 -11 4 -13 10 -2 6 4 11 13
11 9 0 15 -5 13 -11z m352 -24 c0 -8 -7 -15 -15 -15 -8 0 -15 7 -15 15 0 8 7
15 15 15 8 0 15 -7 15 -15z"/>
</g>
</svg>
